<svg width="18" height="18" viewBox="0 0 18 18" fill="none" xmlns="http://www.w3.org/2000/svg">
<path fill-rule="evenodd" clip-rule="evenodd" d="M9.89435 14.4713C10.187 14.7641 10.187 15.2387 9.89435 15.5316L8.96248 16.4691C6.91031 18.5199 3.58413 18.5189 1.53326 16.4667C-0.517616 14.4146 -0.516567 11.0884 1.5356 9.03751L3.79685 6.77626C5.76194 4.8096 8.91951 4.71588 10.9978 6.56251C11.3084 6.83796 11.337 7.3131 11.0615 7.62376C10.7861 7.93442 10.311 7.96296 10.0003 7.68751C8.51597 6.36937 6.26153 6.43637 4.8581 7.84032L2.59685 10.0988C1.13209 11.5635 1.13209 13.9384 2.59685 15.4031C4.06162 16.8679 6.43646 16.8679 7.90123 15.4031L8.8331 14.4713C8.97378 14.3304 9.16467 14.2513 9.36373 14.2513C9.56278 14.2513 9.75368 14.3304 9.89435 14.4713ZM16.4644 1.53376C14.4121 -0.513858 11.0897 -0.513858 9.03748 1.53376L8.1056 2.46657C7.81281 2.75963 7.81301 3.23456 8.10607 3.52735C8.39913 3.82015 8.87405 3.81994 9.16685 3.52689L10.0987 2.59501C11.5635 1.13025 13.9383 1.13025 15.4031 2.59501C16.8679 4.05977 16.8679 6.43462 15.4031 7.89939L13.1419 10.1625C11.7377 11.5657 9.48325 11.6314 7.99966 10.3125C7.7987 10.1343 7.51794 10.0769 7.26315 10.1618C7.00836 10.2468 6.81823 10.4612 6.7644 10.7243C6.71057 10.9875 6.8012 11.2593 7.00216 11.4375C9.07996 13.2847 12.2375 13.1917 14.2031 11.2256L16.4644 8.96439C18.5132 6.91195 18.5132 3.58807 16.4644 1.53564V1.53376Z" fill="#121417"/>
</svg>
